<?xml version="1.0" encoding="UTF-8" standalone="no"?>
<svg width="144px" height="152px" viewBox="0 0 144 152" version="1.1" xmlns="http://www.w3.org/2000/svg" xmlns:xlink="http://www.w3.org/1999/xlink" xmlns:sketch="http://www.bohemiancoding.com/sketch/ns">
    <!-- Generator: Sketch 3.5.1 (25234) - http://www.bohemiancoding.com/sketch -->
    <title>Shape</title>
    <desc>Created with Sketch.</desc>
    <defs></defs>
    <g id="Page-2" stroke="none" stroke-width="1" fill="none" fill-rule="evenodd" sketch:type="MSPage">
        <g id="Spotlight" sketch:type="MSArtboardGroup" transform="translate(-468.000000, -108.000000)" fill="#FFFFFF">
            <path d="M539.536574,208.983844 L585.841467,256.386286 C590.486486,261.181072 593.506419,261.228014 598.238616,256.386286 L607.528654,246.872715 C612.077554,242.214284 612.388265,239.158585 607.528654,234.180502 L558.507833,184.001779 L607.530889,133.82082 C612.124496,129.106506 612.211674,125.923394 607.530889,121.124137 L598.240851,111.615037 C593.421476,106.68166 590.444015,106.909664 585.843702,111.615037 L539.536574,159.019713 L493.233915,111.615037 C488.631368,106.909664 485.653906,106.68166 480.834531,111.615037 L471.548964,121.124137 C466.863709,125.921159 466.946416,129.104271 471.548964,133.82082 L520.56755,184.001779 L471.548964,234.180502 C466.689353,239.158585 466.946416,242.214284 471.548964,246.872715 L480.834531,256.386286 C485.524257,261.228014 488.54419,261.181072 493.233915,256.386286 L539.536574,208.983844 L539.536574,208.983844 Z" id="Shape" sketch:type="MSShapeGroup"></path>
        </g>
    </g>
</svg>